<mxfile host="app.diagrams.net" agent="Mozilla/5.0 (Windows NT 10.0; Win64; x64) AppleWebKit/537.36 (KHTML, like Gecko) Chrome/134.0.0.0 Safari/537.36 Edg/134.0.0.0" version="26.2.9">
  <diagram name="Page-1" id="QK47E6WRy4JyNU8DnVt8">
    <mxGraphModel dx="1050" dy="643" grid="1" gridSize="10" guides="1" tooltips="1" connect="1" arrows="1" fold="1" page="1" pageScale="1" pageWidth="850" pageHeight="1100" math="0" shadow="0">
      <root>
        <mxCell id="0" />
        <mxCell id="1" parent="0" />
        <mxCell id="ebSa2V9OrGf27Llf0-Gl-1" value="" style="ellipse;html=1;shape=startState;fillColor=#000000;strokeColor=#ff0000;" vertex="1" parent="1">
          <mxGeometry x="410" y="80" width="30" height="30" as="geometry" />
        </mxCell>
        <mxCell id="ebSa2V9OrGf27Llf0-Gl-2" value="" style="edgeStyle=orthogonalEdgeStyle;html=1;verticalAlign=bottom;endArrow=open;endSize=8;strokeColor=light-dark(#36393D,#FAFCFF);rounded=0;fillColor=#f9f7ed;" edge="1" source="ebSa2V9OrGf27Llf0-Gl-1" parent="1">
          <mxGeometry relative="1" as="geometry">
            <mxPoint x="425" y="170" as="targetPoint" />
          </mxGeometry>
        </mxCell>
        <mxCell id="ebSa2V9OrGf27Llf0-Gl-3" value="" style="ellipse;html=1;shape=endState;fillColor=#000000;strokeColor=#ff0000;" vertex="1" parent="1">
          <mxGeometry x="210" y="1460" width="30" height="30" as="geometry" />
        </mxCell>
        <mxCell id="ebSa2V9OrGf27Llf0-Gl-4" value="Command sent to initiate superlaser activation" style="html=1;dashed=0;whiteSpace=wrap;" vertex="1" parent="1">
          <mxGeometry x="375" y="170" width="100" height="50" as="geometry" />
        </mxCell>
        <mxCell id="ebSa2V9OrGf27Llf0-Gl-5" value="" style="shape=line;html=1;strokeWidth=6;strokeColor=#ff0000;" vertex="1" parent="1">
          <mxGeometry x="330" y="550" width="200" height="10" as="geometry" />
        </mxCell>
        <mxCell id="ebSa2V9OrGf27Llf0-Gl-7" value="" style="edgeStyle=orthogonalEdgeStyle;html=1;verticalAlign=bottom;endArrow=open;endSize=8;strokeColor=light-dark(#FF0000,#FFFFFF);rounded=0;" edge="1" parent="1">
          <mxGeometry relative="1" as="geometry">
            <mxPoint x="424" y="260" as="targetPoint" />
            <mxPoint x="424" y="220" as="sourcePoint" />
          </mxGeometry>
        </mxCell>
        <mxCell id="ebSa2V9OrGf27Llf0-Gl-8" value="" style="edgeStyle=orthogonalEdgeStyle;html=1;verticalAlign=bottom;endArrow=open;endSize=8;strokeColor=light-dark(#FF0000,#FFFFFF);rounded=0;" edge="1" parent="1">
          <mxGeometry relative="1" as="geometry">
            <mxPoint x="375" y="310" as="targetPoint" />
            <mxPoint x="375" y="270" as="sourcePoint" />
          </mxGeometry>
        </mxCell>
        <mxCell id="ebSa2V9OrGf27Llf0-Gl-9" value="" style="edgeStyle=orthogonalEdgeStyle;html=1;verticalAlign=bottom;endArrow=open;endSize=8;strokeColor=light-dark(#FF0000,#FFFFFF);rounded=0;" edge="1" parent="1">
          <mxGeometry relative="1" as="geometry">
            <mxPoint x="480" y="310" as="targetPoint" />
            <mxPoint x="480" y="270" as="sourcePoint" />
          </mxGeometry>
        </mxCell>
        <mxCell id="ebSa2V9OrGf27Llf0-Gl-10" value="Check if superlaser is currently under maintenance" style="html=1;dashed=0;whiteSpace=wrap;" vertex="1" parent="1">
          <mxGeometry x="310" y="310" width="100" height="60" as="geometry" />
        </mxCell>
        <mxCell id="ebSa2V9OrGf27Llf0-Gl-16" value="" style="edgeStyle=orthogonalEdgeStyle;rounded=0;orthogonalLoop=1;jettySize=auto;html=1;" edge="1" parent="1" source="ebSa2V9OrGf27Llf0-Gl-11" target="ebSa2V9OrGf27Llf0-Gl-15">
          <mxGeometry relative="1" as="geometry" />
        </mxCell>
        <mxCell id="ebSa2V9OrGf27Llf0-Gl-11" value="Verify credentials of employee sending request" style="html=1;dashed=0;whiteSpace=wrap;" vertex="1" parent="1">
          <mxGeometry x="440" y="310" width="100" height="50" as="geometry" />
        </mxCell>
        <mxCell id="ebSa2V9OrGf27Llf0-Gl-15" value="" style="rhombus;whiteSpace=wrap;html=1;dashed=0;" vertex="1" parent="1">
          <mxGeometry x="450" y="425" width="80" height="80" as="geometry" />
        </mxCell>
        <mxCell id="ebSa2V9OrGf27Llf0-Gl-17" value="" style="edgeStyle=orthogonalEdgeStyle;rounded=0;orthogonalLoop=1;jettySize=auto;html=1;exitX=1;exitY=0.5;exitDx=0;exitDy=0;" edge="1" parent="1" source="ebSa2V9OrGf27Llf0-Gl-15">
          <mxGeometry relative="1" as="geometry">
            <mxPoint x="590" y="410" as="sourcePoint" />
            <mxPoint x="430" y="120" as="targetPoint" />
            <Array as="points">
              <mxPoint x="601" y="465" />
              <mxPoint x="601" y="120" />
            </Array>
          </mxGeometry>
        </mxCell>
        <mxCell id="ebSa2V9OrGf27Llf0-Gl-19" value="&lt;font&gt;[Employee does not meet security clearance requirements]&lt;/font&gt;" style="text;html=1;align=center;verticalAlign=middle;resizable=0;points=[];autosize=1;strokeColor=none;fillColor=none;" vertex="1" parent="1">
          <mxGeometry x="500" y="410" width="340" height="30" as="geometry" />
        </mxCell>
        <mxCell id="ebSa2V9OrGf27Llf0-Gl-20" value="" style="shape=line;html=1;strokeWidth=6;strokeColor=#ff0000;" vertex="1" parent="1">
          <mxGeometry x="330" y="260" width="200" height="10" as="geometry" />
        </mxCell>
        <mxCell id="ebSa2V9OrGf27Llf0-Gl-21" value="" style="edgeStyle=orthogonalEdgeStyle;rounded=0;orthogonalLoop=1;jettySize=auto;html=1;" edge="1" parent="1">
          <mxGeometry relative="1" as="geometry">
            <mxPoint x="489.58" y="505" as="sourcePoint" />
            <mxPoint x="490" y="550" as="targetPoint" />
          </mxGeometry>
        </mxCell>
        <mxCell id="ebSa2V9OrGf27Llf0-Gl-22" value="" style="rhombus;whiteSpace=wrap;html=1;dashed=0;" vertex="1" parent="1">
          <mxGeometry x="320" y="425" width="80" height="80" as="geometry" />
        </mxCell>
        <mxCell id="ebSa2V9OrGf27Llf0-Gl-23" value="" style="edgeStyle=orthogonalEdgeStyle;rounded=0;orthogonalLoop=1;jettySize=auto;html=1;" edge="1" parent="1">
          <mxGeometry relative="1" as="geometry">
            <mxPoint x="359.58000000000004" y="360" as="sourcePoint" />
            <mxPoint x="359.58000000000004" y="425" as="targetPoint" />
          </mxGeometry>
        </mxCell>
        <mxCell id="ebSa2V9OrGf27Llf0-Gl-24" value="&lt;font&gt;[Superlaser is not under maintenance]&lt;/font&gt;" style="text;html=1;align=center;verticalAlign=middle;resizable=0;points=[];autosize=1;strokeColor=none;fillColor=none;" vertex="1" parent="1">
          <mxGeometry x="135" y="505" width="230" height="30" as="geometry" />
        </mxCell>
        <mxCell id="ebSa2V9OrGf27Llf0-Gl-25" value="&lt;font&gt;[Superlaser is under maintenance]&lt;/font&gt;" style="text;html=1;align=center;verticalAlign=middle;resizable=0;points=[];autosize=1;strokeColor=none;fillColor=none;" vertex="1" parent="1">
          <mxGeometry x="135" y="410" width="210" height="30" as="geometry" />
        </mxCell>
        <mxCell id="ebSa2V9OrGf27Llf0-Gl-27" value="&lt;font&gt;[Employee meets security clearance requirements]&lt;/font&gt;" style="text;html=1;align=center;verticalAlign=middle;resizable=0;points=[];autosize=1;strokeColor=none;fillColor=none;" vertex="1" parent="1">
          <mxGeometry x="485" y="510" width="290" height="30" as="geometry" />
        </mxCell>
        <mxCell id="ebSa2V9OrGf27Llf0-Gl-28" value="" style="edgeStyle=orthogonalEdgeStyle;rounded=0;orthogonalLoop=1;jettySize=auto;html=1;" edge="1" parent="1">
          <mxGeometry relative="1" as="geometry">
            <mxPoint x="359.03" y="505" as="sourcePoint" />
            <mxPoint x="359" y="550" as="targetPoint" />
          </mxGeometry>
        </mxCell>
        <mxCell id="ebSa2V9OrGf27Llf0-Gl-29" value="" style="edgeStyle=orthogonalEdgeStyle;rounded=0;orthogonalLoop=1;jettySize=auto;html=1;exitX=1;exitY=0.5;exitDx=0;exitDy=0;" edge="1" parent="1">
          <mxGeometry relative="1" as="geometry">
            <mxPoint x="320.99999999999955" y="465" as="sourcePoint" />
            <mxPoint x="420.99999999999955" y="120" as="targetPoint" />
            <Array as="points">
              <mxPoint x="249.99999999999955" y="465" />
              <mxPoint x="249.99999999999955" y="120" />
            </Array>
          </mxGeometry>
        </mxCell>
        <mxCell id="ebSa2V9OrGf27Llf0-Gl-30" value="" style="edgeStyle=orthogonalEdgeStyle;rounded=0;orthogonalLoop=1;jettySize=auto;html=1;" edge="1" parent="1">
          <mxGeometry relative="1" as="geometry">
            <mxPoint x="424" y="560" as="sourcePoint" />
            <mxPoint x="424" y="600" as="targetPoint" />
          </mxGeometry>
        </mxCell>
        <mxCell id="ebSa2V9OrGf27Llf0-Gl-31" value="Verify all components of superlaser are functional and defect free" style="html=1;dashed=0;whiteSpace=wrap;" vertex="1" parent="1">
          <mxGeometry x="365" y="600" width="120" height="70" as="geometry" />
        </mxCell>
        <mxCell id="ebSa2V9OrGf27Llf0-Gl-33" value="" style="edgeStyle=orthogonalEdgeStyle;rounded=0;orthogonalLoop=1;jettySize=auto;html=1;" edge="1" parent="1">
          <mxGeometry relative="1" as="geometry">
            <mxPoint x="424" y="670" as="sourcePoint" />
            <mxPoint x="424" y="710" as="targetPoint" />
          </mxGeometry>
        </mxCell>
        <mxCell id="ebSa2V9OrGf27Llf0-Gl-34" value="" style="rhombus;whiteSpace=wrap;html=1;dashed=0;" vertex="1" parent="1">
          <mxGeometry x="385" y="710" width="80" height="80" as="geometry" />
        </mxCell>
        <mxCell id="ebSa2V9OrGf27Llf0-Gl-35" value="&lt;font&gt;[All components are functional and defect free]&lt;/font&gt;" style="text;html=1;align=center;verticalAlign=middle;resizable=0;points=[];autosize=1;strokeColor=none;fillColor=none;" vertex="1" parent="1">
          <mxGeometry x="465" y="720" width="270" height="30" as="geometry" />
        </mxCell>
        <mxCell id="ebSa2V9OrGf27Llf0-Gl-36" value="&lt;font&gt;[Component found that is not functional]&lt;/font&gt;" style="text;html=1;align=center;verticalAlign=middle;resizable=0;points=[];autosize=1;strokeColor=none;fillColor=none;" vertex="1" parent="1">
          <mxGeometry x="150" y="720" width="240" height="30" as="geometry" />
        </mxCell>
        <mxCell id="ebSa2V9OrGf27Llf0-Gl-37" value="" style="edgeStyle=orthogonalEdgeStyle;rounded=0;orthogonalLoop=1;jettySize=auto;html=1;" edge="1" parent="1">
          <mxGeometry relative="1" as="geometry">
            <mxPoint x="390" y="750" as="sourcePoint" />
            <mxPoint x="300.41999999999996" y="835" as="targetPoint" />
          </mxGeometry>
        </mxCell>
        <mxCell id="ebSa2V9OrGf27Llf0-Gl-38" value="" style="edgeStyle=orthogonalEdgeStyle;rounded=0;orthogonalLoop=1;jettySize=auto;html=1;" edge="1" parent="1">
          <mxGeometry relative="1" as="geometry">
            <mxPoint x="464.99999999999966" y="750" as="sourcePoint" />
            <mxPoint x="554.5799999999997" y="835" as="targetPoint" />
          </mxGeometry>
        </mxCell>
        <mxCell id="ebSa2V9OrGf27Llf0-Gl-39" value="Send out repair teams immediately to fix defective components" style="html=1;dashed=0;whiteSpace=wrap;" vertex="1" parent="1">
          <mxGeometry x="230" y="840" width="120" height="70" as="geometry" />
        </mxCell>
        <mxCell id="ebSa2V9OrGf27Llf0-Gl-40" value="" style="edgeStyle=orthogonalEdgeStyle;rounded=0;orthogonalLoop=1;jettySize=auto;html=1;entryX=0.006;entryY=0.378;entryDx=0;entryDy=0;entryPerimeter=0;exitX=0;exitY=0.5;exitDx=0;exitDy=0;" edge="1" parent="1" source="ebSa2V9OrGf27Llf0-Gl-39" target="ebSa2V9OrGf27Llf0-Gl-31">
          <mxGeometry relative="1" as="geometry">
            <mxPoint x="230" y="915" as="sourcePoint" />
            <mxPoint x="140" y="630" as="targetPoint" />
            <Array as="points">
              <mxPoint x="160" y="875" />
              <mxPoint x="160" y="626" />
            </Array>
          </mxGeometry>
        </mxCell>
        <mxCell id="ebSa2V9OrGf27Llf0-Gl-41" value="Begin priming superlaser" style="html=1;dashed=0;whiteSpace=wrap;" vertex="1" parent="1">
          <mxGeometry x="490" y="840" width="120" height="70" as="geometry" />
        </mxCell>
        <mxCell id="ebSa2V9OrGf27Llf0-Gl-42" value="" style="rhombus;whiteSpace=wrap;html=1;dashed=0;" vertex="1" parent="1">
          <mxGeometry x="510" y="1080" width="80" height="80" as="geometry" />
        </mxCell>
        <mxCell id="ebSa2V9OrGf27Llf0-Gl-43" value="" style="edgeStyle=orthogonalEdgeStyle;rounded=0;orthogonalLoop=1;jettySize=auto;html=1;" edge="1" parent="1">
          <mxGeometry relative="1" as="geometry">
            <mxPoint x="549.53" y="910" as="sourcePoint" />
            <mxPoint x="549.98" y="955" as="targetPoint" />
          </mxGeometry>
        </mxCell>
        <mxCell id="ebSa2V9OrGf27Llf0-Gl-45" value="Check if command is sent to cancel superlaser" style="html=1;dashed=0;whiteSpace=wrap;" vertex="1" parent="1">
          <mxGeometry x="490" y="960" width="120" height="70" as="geometry" />
        </mxCell>
        <mxCell id="ebSa2V9OrGf27Llf0-Gl-46" value="" style="edgeStyle=orthogonalEdgeStyle;rounded=0;orthogonalLoop=1;jettySize=auto;html=1;" edge="1" parent="1">
          <mxGeometry relative="1" as="geometry">
            <mxPoint x="549.54" y="1030" as="sourcePoint" />
            <mxPoint x="549.99" y="1075" as="targetPoint" />
          </mxGeometry>
        </mxCell>
        <mxCell id="ebSa2V9OrGf27Llf0-Gl-47" value="&lt;font&gt;[Emergency cancellation is not triggered]&lt;/font&gt;" style="text;html=1;align=center;verticalAlign=middle;resizable=0;points=[];autosize=1;strokeColor=none;fillColor=none;" vertex="1" parent="1">
          <mxGeometry x="270" y="1090" width="240" height="30" as="geometry" />
        </mxCell>
        <mxCell id="ebSa2V9OrGf27Llf0-Gl-48" value="" style="edgeStyle=orthogonalEdgeStyle;rounded=0;orthogonalLoop=1;jettySize=auto;html=1;" edge="1" parent="1">
          <mxGeometry relative="1" as="geometry">
            <mxPoint x="510" y="1120" as="sourcePoint" />
            <mxPoint x="420.41999999999996" y="1205" as="targetPoint" />
          </mxGeometry>
        </mxCell>
        <mxCell id="ebSa2V9OrGf27Llf0-Gl-49" value="Continue priming laser" style="html=1;dashed=0;whiteSpace=wrap;" vertex="1" parent="1">
          <mxGeometry x="360" y="1210" width="120" height="70" as="geometry" />
        </mxCell>
        <mxCell id="ebSa2V9OrGf27Llf0-Gl-50" value="" style="rhombus;whiteSpace=wrap;html=1;dashed=0;" vertex="1" parent="1">
          <mxGeometry x="380" y="1330" width="80" height="80" as="geometry" />
        </mxCell>
        <mxCell id="ebSa2V9OrGf27Llf0-Gl-51" value="" style="edgeStyle=orthogonalEdgeStyle;rounded=0;orthogonalLoop=1;jettySize=auto;html=1;" edge="1" parent="1">
          <mxGeometry relative="1" as="geometry">
            <mxPoint x="419.53000000000003" y="1280" as="sourcePoint" />
            <mxPoint x="419.9800000000001" y="1325" as="targetPoint" />
          </mxGeometry>
        </mxCell>
        <mxCell id="ebSa2V9OrGf27Llf0-Gl-52" value="&lt;font&gt;[Laser is primed]&lt;/font&gt;" style="text;html=1;align=center;verticalAlign=middle;resizable=0;points=[];autosize=1;strokeColor=none;fillColor=none;" vertex="1" parent="1">
          <mxGeometry x="290" y="1330" width="110" height="30" as="geometry" />
        </mxCell>
        <mxCell id="ebSa2V9OrGf27Llf0-Gl-53" value="&lt;font&gt;[Laser is not primed]&lt;/font&gt;" style="text;html=1;align=center;verticalAlign=middle;resizable=0;points=[];autosize=1;strokeColor=none;fillColor=none;" vertex="1" parent="1">
          <mxGeometry x="450" y="1330" width="130" height="30" as="geometry" />
        </mxCell>
        <mxCell id="ebSa2V9OrGf27Llf0-Gl-54" value="" style="edgeStyle=orthogonalEdgeStyle;rounded=0;orthogonalLoop=1;jettySize=auto;html=1;exitX=1;exitY=0.5;exitDx=0;exitDy=0;" edge="1" parent="1" source="ebSa2V9OrGf27Llf0-Gl-50">
          <mxGeometry relative="1" as="geometry">
            <mxPoint x="745.9999999999995" y="1269" as="sourcePoint" />
            <mxPoint x="610" y="990" as="targetPoint" />
            <Array as="points">
              <mxPoint x="640" y="1370" />
              <mxPoint x="640" y="990" />
            </Array>
          </mxGeometry>
        </mxCell>
        <mxCell id="ebSa2V9OrGf27Llf0-Gl-55" value="Fire laser" style="html=1;dashed=0;whiteSpace=wrap;" vertex="1" parent="1">
          <mxGeometry x="170" y="1335" width="120" height="70" as="geometry" />
        </mxCell>
        <mxCell id="ebSa2V9OrGf27Llf0-Gl-56" value="" style="edgeStyle=orthogonalEdgeStyle;rounded=0;orthogonalLoop=1;jettySize=auto;html=1;exitX=0;exitY=0.5;exitDx=0;exitDy=0;entryX=1;entryY=0.5;entryDx=0;entryDy=0;" edge="1" parent="1" source="ebSa2V9OrGf27Llf0-Gl-50" target="ebSa2V9OrGf27Llf0-Gl-55">
          <mxGeometry relative="1" as="geometry">
            <mxPoint x="330" y="1375" as="sourcePoint" />
            <mxPoint x="330.45000000000005" y="1420" as="targetPoint" />
          </mxGeometry>
        </mxCell>
        <mxCell id="ebSa2V9OrGf27Llf0-Gl-57" value="" style="edgeStyle=orthogonalEdgeStyle;rounded=0;orthogonalLoop=1;jettySize=auto;html=1;" edge="1" parent="1">
          <mxGeometry relative="1" as="geometry">
            <mxPoint x="224.49000000000004" y="1410" as="sourcePoint" />
            <mxPoint x="224.94000000000008" y="1455" as="targetPoint" />
          </mxGeometry>
        </mxCell>
        <mxCell id="ebSa2V9OrGf27Llf0-Gl-59" value="&lt;font&gt;[Emergency cancellation is triggered]&lt;/font&gt;" style="text;html=1;align=center;verticalAlign=middle;resizable=0;points=[];autosize=1;strokeColor=none;fillColor=none;" vertex="1" parent="1">
          <mxGeometry x="545" y="1160" width="220" height="30" as="geometry" />
        </mxCell>
        <mxCell id="ebSa2V9OrGf27Llf0-Gl-60" value="" style="edgeStyle=orthogonalEdgeStyle;rounded=0;orthogonalLoop=1;jettySize=auto;html=1;entryX=1;entryY=0.5;entryDx=0;entryDy=0;" edge="1" parent="1" target="ebSa2V9OrGf27Llf0-Gl-3">
          <mxGeometry relative="1" as="geometry">
            <mxPoint x="549.5" y="1165" as="sourcePoint" />
            <mxPoint x="550" y="1450" as="targetPoint" />
            <Array as="points">
              <mxPoint x="550" y="1475" />
            </Array>
          </mxGeometry>
        </mxCell>
      </root>
    </mxGraphModel>
  </diagram>
</mxfile>
